<?xml version="1.0" encoding="UTF-8"?>
<svg width="125px" height="42px" viewBox="0 0 125 42" version="1.1" xmlns="http://www.w3.org/2000/svg" xmlns:xlink="http://www.w3.org/1999/xlink">
    <title>Untitled 3</title>
    <g id="Page-1" stroke="none" stroke-width="1" fill="none" fill-rule="evenodd">
        <g id="logo" transform="translate(0.500000, 0.600000)" fill-rule="nonzero">
            <g id="layer102" transform="translate(0.100000, 0.000000)" fill="#6E45E2">
                <path d="M29.9,37.7 C22.8,35.5 21.3,35.4 16.3,36.3 C5.8,38.4 6.4,38.9 2,23.7 C-1.5,11.9 -1.2,11.4 9.8,8.3 C16.9,6.4 18.4,5.6 18.9,3.7 C20,-1 22.9,-1.1 37.8,3.2 C45.4,5.4 52.3,7.9 53.2,8.7 C54.5,10.1 54.2,11.8 50.4,24.1 C48.1,31.7 45.7,38.5 45.2,39.2 C43.7,41 39,40.5 29.9,37.7 Z" id="Path"></path>
            </g>
            <g id="layer103" transform="translate(0.000000, 6.500000)" fill="#BEACFE">
                <path d="M5.8,28.7 C5.2,27.4 3.6,22.3 2.1,17.2 C0.1,10.4 -0.4,7.5 0.4,6.1 C1.3,4.3 16.1,-0.8 17.2,0.2 C17.4,0.5 16.1,5.7 14.3,11.8 C10.7,24.3 10.9,25.6 16.6,27.5 L20,28.7 L16,29.8 C9.7,31.5 7,31.2 5.8,28.7 Z" id="Path"></path>
            </g>
            <g id="layer104" transform="translate(20.700000, 12.400000)" fill="#FDFCFF">
                <path d="M6,14.2 C3.1,11.3 -0.6,3.4 0.1,1.7 C1.2,-1.2 4.5,-0.2 6.9,3.8 C8.1,5.8 9.2,7.6 9.4,7.8 C9.5,8 12.3,6.8 15.7,5.1 C22.5,1.6 25.3,1.2 26.2,3.6 C27.1,6 26.3,6.7 18.5,10.8 C8,16.2 8,16.2 6,14.2 Z" id="Path"></path>
            </g>
        </g>
        <text id="DOINGSDONE" font-family="Helvetica-Bold, Helvetica" font-size="16" font-weight="bold" fill="#31313A">
            <tspan x="58" y="17">DOINGS</tspan>
            <tspan x="58" y="36">DONE</tspan>
        </text>
    </g>
</svg>